<svg id="svg" version="1.1" xmlns="http://www.w3.org/2000/svg" xmlns:xlink="http://www.w3.org/1999/xlink" width="400" height="400" viewBox="0, 0, 400,400"><g id="svgg"><path id="path0" d="M222.471 66.148 C 222.542 66.450,226.929 71.130,232.220 76.548 L 241.840 86.400 275.220 86.411 L 308.600 86.421 318.506 76.382 C 323.954 70.861,328.309 66.176,328.182 65.972 C 327.774 65.310,222.315 65.487,222.471 66.148 M322.270 80.338 L 312.400 90.237 312.400 117.623 L 312.400 145.009 318.705 151.305 C 322.172 154.767,325.199 157.600,325.432 157.600 C 325.665 157.600,327.418 156.003,329.328 154.052 L 332.800 150.503 332.800 110.675 C 332.800 88.770,332.651 70.755,332.470 70.643 C 332.288 70.531,327.698 74.894,322.270 80.338 M217.867 71.067 C 217.229 71.705,217.571 149.780,218.216 150.701 C 219.225 152.142,224.894 157.600,225.381 157.600 C 225.629 157.600,228.660 154.752,232.116 151.272 L 238.400 144.944 238.400 117.591 L 238.400 90.237 228.711 80.519 C 219.540 71.320,218.511 70.423,217.867 71.067 M239.400 152.175 C 238.065 152.780,229.600 161.216,229.600 161.941 C 229.600 162.194,231.768 164.561,234.417 167.201 L 239.234 172.000 275.286 172.000 L 311.337 172.000 316.369 167.009 L 321.400 162.019 316.800 157.368 C 314.270 154.810,311.621 152.465,310.913 152.158 C 309.028 151.341,241.206 151.357,239.400 152.175 M221.392 170.008 L 217.800 173.617 217.694 213.283 C 217.623 240.059,217.722 253.082,218.000 253.360 C 218.282 253.642,221.559 250.623,228.406 243.777 L 238.400 233.782 238.400 206.419 L 238.400 179.056 232.116 172.728 C 228.660 169.248,225.641 166.400,225.408 166.400 C 225.174 166.400,223.367 168.024,221.392 170.008 M318.556 172.651 L 312.400 178.903 312.400 206.333 L 312.400 233.763 322.289 243.682 C 327.729 249.137,332.319 253.600,332.489 253.600 C 332.660 253.600,332.800 235.671,332.800 213.758 L 332.800 173.915 329.351 170.158 C 327.454 168.091,325.634 166.400,325.307 166.400 C 324.979 166.400,321.942 169.213,318.556 172.651 M232.138 247.434 C 226.892 252.843,222.600 257.478,222.600 257.734 C 222.600 258.348,327.664 258.414,327.863 257.800 C 327.935 257.580,323.630 252.939,318.297 247.486 L 308.600 237.571 275.138 237.586 L 241.677 237.600 232.138 247.434 " stroke="none" fill="#f92424" fill-rule="evenodd"></path><path id="path1" d="M75.372 66.445 C 75.211 66.706,78.965 70.761,84.445 76.245 L 93.794 85.600 127.126 85.600 L 160.457 85.600 169.785 76.100 C 174.915 70.875,179.032 66.465,178.933 66.300 C 178.625 65.787,75.690 65.931,75.372 66.445 M70.000 110.858 L 70.000 150.116 73.589 153.758 L 77.179 157.400 83.389 151.205 L 89.600 145.010 89.600 117.802 L 89.600 90.594 80.097 81.097 C 74.870 75.874,70.460 71.600,70.297 71.600 C 70.134 71.600,70.000 89.266,70.000 110.858 M178.556 76.500 C 175.925 79.195,171.753 83.500,169.286 86.067 L 164.800 90.733 164.800 117.841 L 164.800 144.949 171.018 151.174 L 177.235 157.400 180.618 153.882 L 184.000 150.364 184.000 110.982 C 184.000 89.322,183.852 71.600,183.671 71.600 C 183.490 71.600,181.188 73.805,178.556 76.500 M73.300 170.778 L 70.000 174.326 70.000 213.363 C 70.000 238.090,70.141 252.400,70.385 252.400 C 70.596 252.400,75.006 248.152,80.185 242.960 L 89.600 233.521 89.600 206.255 L 89.600 178.990 83.695 173.095 C 80.447 169.853,77.522 167.207,77.195 167.215 C 76.868 167.224,75.115 168.827,73.300 170.778 M170.676 173.150 L 164.800 179.100 164.800 206.175 L 164.800 233.250 174.049 242.825 C 179.136 248.091,183.456 252.400,183.649 252.400 C 183.848 252.400,184.000 235.417,184.000 213.214 L 184.000 174.027 180.955 170.614 C 177.087 166.278,177.583 166.155,170.676 173.150 M84.677 247.556 C 79.464 252.812,75.200 257.222,75.200 257.356 C 75.200 257.490,98.510 257.600,127.000 257.600 C 155.490 257.600,178.792 257.465,178.782 257.300 C 178.773 257.135,174.586 252.725,169.478 247.500 L 160.191 238.000 127.172 238.000 L 94.153 238.000 84.677 247.556 M228.583 293.700 C 228.478 293.975,228.439 303.290,228.496 314.400 L 228.600 334.600 228.800 313.900 C 228.910 302.515,228.949 293.200,228.887 293.200 C 228.826 293.200,228.689 293.425,228.583 293.700 M101.334 296.800 C 101.334 298.450,101.405 299.125,101.491 298.300 C 101.578 297.475,101.578 296.125,101.491 295.300 C 101.405 294.475,101.334 295.150,101.334 296.800 M293.386 314.200 C 293.386 325.420,293.437 330.068,293.500 324.528 C 293.562 318.988,293.562 309.808,293.500 304.128 C 293.437 298.448,293.386 302.980,293.386 314.200 M333.337 297.000 C 333.339 298.760,333.409 299.430,333.493 298.489 C 333.578 297.549,333.577 296.109,333.491 295.289 C 333.405 294.470,333.336 295.240,333.337 297.000 M162.118 300.698 C 163.833 300.773,166.533 300.772,168.118 300.697 C 169.703 300.621,168.300 300.559,165.000 300.560 C 161.700 300.561,160.403 300.622,162.118 300.698 M192.100 300.697 C 193.805 300.772,196.595 300.772,198.300 300.697 C 200.005 300.622,198.610 300.561,195.200 300.561 C 191.790 300.561,190.395 300.622,192.100 300.697 M214.500 300.697 C 216.205 300.772,218.995 300.772,220.700 300.697 C 222.405 300.622,221.010 300.561,217.600 300.561 C 214.190 300.561,212.795 300.622,214.500 300.697 M320.522 300.699 C 322.899 300.770,326.679 300.769,328.922 300.698 C 331.165 300.627,329.220 300.569,324.600 300.569 C 319.980 300.570,318.145 300.628,320.522 300.699 M201.783 317.800 C 201.783 327.040,201.836 330.763,201.900 326.073 C 201.964 321.383,201.964 313.823,201.899 309.273 C 201.835 304.723,201.783 308.560,201.783 317.800 M285.346 310.200 C 285.347 312.400,285.414 313.249,285.495 312.087 C 285.576 310.924,285.576 309.124,285.493 308.087 C 285.411 307.049,285.345 308.000,285.346 310.200 M67.353 314.600 C 67.353 317.240,67.418 318.268,67.497 316.884 C 67.575 315.501,67.574 313.341,67.495 312.084 C 67.416 310.828,67.352 311.960,67.353 314.600 M333.334 314.000 C 333.334 315.650,333.405 316.325,333.491 315.500 C 333.578 314.675,333.578 313.325,333.491 312.500 C 333.405 311.675,333.334 312.350,333.334 314.000 M299.328 314.800 C 299.328 316.230,299.401 316.815,299.489 316.100 C 299.578 315.385,299.578 314.215,299.489 313.500 C 299.401 312.785,299.328 313.370,299.328 314.800 M254.893 319.600 C 254.893 320.370,254.975 320.685,255.076 320.300 C 255.176 319.915,255.176 319.285,255.076 318.900 C 254.975 318.515,254.893 318.830,254.893 319.600 M162.900 320.298 C 165.045 320.370,168.555 320.370,170.700 320.298 C 172.845 320.226,171.090 320.167,166.800 320.167 C 162.510 320.167,160.755 320.226,162.900 320.298 M284.901 324.200 C 284.905 325.080,284.987 325.393,285.083 324.895 C 285.179 324.398,285.175 323.678,285.075 323.295 C 284.975 322.913,284.896 323.320,284.901 324.200 M101.337 331.000 C 101.339 332.760,101.409 333.430,101.493 332.489 C 101.578 331.549,101.577 330.109,101.491 329.289 C 101.405 328.470,101.336 329.240,101.337 331.000 M333.337 331.400 C 333.339 333.160,333.409 333.830,333.493 332.889 C 333.578 331.949,333.577 330.509,333.491 329.689 C 333.405 328.870,333.336 329.640,333.337 331.400 M71.200 328.925 C 71.200 328.994,71.785 329.579,72.500 330.225 L 73.800 331.400 72.625 330.100 C 71.530 328.888,71.200 328.616,71.200 328.925 M88.700 335.098 C 90.955 335.170,94.645 335.170,96.900 335.098 C 99.155 335.027,97.310 334.969,92.800 334.969 C 88.290 334.969,86.445 335.027,88.700 335.098 M105.113 335.095 C 106.276 335.176,108.076 335.176,109.113 335.093 C 110.151 335.011,109.200 334.945,107.000 334.946 C 104.800 334.947,103.951 335.014,105.113 335.095 M139.715 335.096 C 140.988 335.176,142.968 335.175,144.115 335.094 C 145.262 335.014,144.220 334.949,141.800 334.950 C 139.380 334.951,138.442 335.016,139.715 335.096 M152.100 335.094 C 153.145 335.176,154.855 335.176,155.900 335.094 C 156.945 335.012,156.090 334.944,154.000 334.944 C 151.910 334.944,151.055 335.012,152.100 335.094 M204.313 335.095 C 205.476 335.176,207.276 335.176,208.313 335.093 C 209.351 335.011,208.400 334.945,206.200 334.946 C 204.000 334.947,203.151 335.014,204.313 335.095 M231.300 335.094 C 232.345 335.176,234.055 335.176,235.100 335.094 C 236.145 335.012,235.290 334.944,233.200 334.944 C 231.110 334.944,230.255 335.012,231.300 335.094 M249.113 335.095 C 250.276 335.176,252.076 335.176,253.113 335.093 C 254.151 335.011,253.200 334.945,251.000 334.946 C 248.800 334.947,247.951 335.014,249.113 335.095 M268.313 335.095 C 269.476 335.176,271.276 335.176,272.313 335.093 C 273.351 335.011,272.400 334.945,270.200 334.946 C 268.000 334.947,267.151 335.014,268.313 335.095 M287.312 335.095 C 288.364 335.177,289.984 335.176,290.912 335.092 C 291.840 335.008,290.980 334.941,289.000 334.942 C 287.020 334.943,286.260 335.012,287.312 335.095 M320.700 335.098 C 322.955 335.170,326.645 335.170,328.900 335.098 C 331.155 335.027,329.310 334.969,324.800 334.969 C 320.290 334.969,318.445 335.027,320.700 335.098 " stroke="none" fill="#648bfb" fill-rule="evenodd"></path><path id="path2" d="M83.929 293.404 C 83.808 293.525,82.692 293.790,81.449 293.992 C 72.072 295.518,67.875 301.871,67.833 314.600 C 67.782 330.446,72.980 334.800,91.953 334.800 C 102.615 334.800,101.430 335.279,101.271 331.035 L 101.141 327.600 92.404 327.600 C 78.550 327.600,77.200 326.465,77.200 314.813 C 77.200 308.076,77.741 305.579,79.677 303.374 C 81.997 300.731,82.458 300.621,92.200 300.400 L 101.000 300.200 101.000 296.800 L 101.000 293.400 92.574 293.292 C 87.940 293.233,84.050 293.283,83.929 293.404 M119.829 293.829 C 119.483 294.174,119.200 294.609,119.200 294.796 C 119.200 294.982,117.333 299.514,115.052 304.867 C 112.770 310.220,109.960 316.850,108.807 319.600 C 107.654 322.350,105.763 326.797,104.604 329.483 C 102.120 335.243,101.916 334.800,107.043 334.800 C 111.799 334.800,111.219 335.293,113.405 329.400 L 115.037 325.000 123.818 324.902 C 134.192 324.786,133.136 324.317,135.335 330.012 L 137.106 334.600 141.753 334.713 C 144.309 334.775,146.400 334.712,146.400 334.574 C 146.400 334.338,142.953 326.020,141.770 323.400 C 141.472 322.740,138.512 315.815,135.193 308.010 C 131.873 300.206,128.942 293.684,128.679 293.516 C 127.708 292.899,120.504 293.153,119.829 293.829 M150.080 293.680 C 149.518 294.242,149.382 333.438,149.939 334.315 C 150.179 334.693,151.329 334.800,154.233 334.715 L 158.200 334.600 158.310 327.829 C 158.450 319.213,157.493 320.000,167.834 320.000 C 181.935 320.000,186.400 316.874,186.400 307.000 C 186.400 299.087,182.881 295.109,174.576 293.631 C 171.108 293.014,150.705 293.055,150.080 293.680 M188.884 293.676 C 188.383 294.177,188.207 298.631,188.643 299.767 C 188.849 300.306,189.790 300.400,194.963 300.400 C 199.156 300.400,201.189 300.549,201.520 300.880 C 201.878 301.238,202.000 305.612,202.000 318.094 L 202.000 334.827 206.300 334.714 L 210.600 334.600 210.704 317.821 C 210.784 305.008,210.926 300.967,211.304 300.727 C 211.577 300.554,214.552 300.409,217.916 300.406 L 224.031 300.400 223.916 296.900 L 223.800 293.400 206.584 293.296 C 193.527 293.217,189.251 293.309,188.884 293.676 M229.080 293.454 C 228.926 293.607,228.800 302.973,228.800 314.267 L 228.800 334.800 233.204 334.800 L 237.607 334.800 237.504 314.100 L 237.400 293.400 233.380 293.287 C 231.169 293.225,229.234 293.300,229.080 293.454 M246.896 293.532 C 246.500 293.784,246.415 298.192,246.496 314.226 L 246.600 334.600 250.961 334.714 L 255.323 334.828 254.995 325.314 C 254.518 311.456,254.526 305.093,255.020 304.927 C 255.255 304.849,257.645 311.350,260.449 319.693 L 265.458 334.600 269.908 334.713 C 275.260 334.849,274.223 336.232,278.439 323.335 C 282.648 310.459,284.321 305.546,284.586 305.281 C 285.506 304.361,285.599 308.107,285.064 324.500 L 284.728 334.800 288.968 334.800 L 293.207 334.800 293.104 314.100 L 293.000 293.400 287.600 293.285 C 284.630 293.221,281.822 293.263,281.359 293.378 C 280.645 293.554,279.780 295.813,275.637 308.305 C 272.952 316.401,270.582 323.289,270.370 323.613 C 269.668 324.682,269.054 323.187,264.411 309.118 C 261.921 301.573,259.635 294.905,259.332 294.300 L 258.779 293.200 253.090 293.206 C 249.960 293.209,247.173 293.356,246.896 293.532 M315.200 293.596 C 314.650 293.774,313.693 293.938,313.074 293.960 C 311.343 294.021,306.375 296.510,304.713 298.148 C 298.211 304.556,297.568 321.782,303.559 329.073 C 307.369 333.709,310.241 334.548,322.900 334.720 L 333.200 334.860 333.200 331.230 L 333.200 327.600 324.249 327.600 C 314.746 327.600,313.617 327.419,311.665 325.583 C 310.292 324.292,309.141 321.319,309.281 319.422 L 309.400 317.800 321.200 317.600 L 333.000 317.400 333.000 314.000 L 333.000 310.600 321.200 310.400 L 309.400 310.200 309.270 309.060 C 309.068 307.301,310.681 303.785,312.233 302.602 C 314.795 300.648,316.240 300.400,325.066 300.400 L 333.231 300.400 333.116 296.900 L 333.000 293.400 324.600 293.336 C 319.980 293.301,315.750 293.418,315.200 293.596 M172.400 300.990 C 175.743 301.872,176.800 303.257,176.800 306.752 C 176.800 312.076,175.198 312.967,165.600 312.986 L 158.600 313.000 158.489 307.030 C 158.405 302.523,158.503 300.981,158.889 300.737 C 159.785 300.168,170.012 300.360,172.400 300.990 M124.688 303.300 C 125.186 303.945,130.003 316.055,130.001 316.657 C 129.999 317.425,128.922 317.600,124.200 317.600 C 117.378 317.600,117.685 318.156,120.462 310.838 C 123.772 302.110,123.771 302.112,124.688 303.300 " stroke="none" fill="#f8f8f8" fill-rule="evenodd"></path><path id="path3" d="M0.000 200.000 L 0.000 400.000 200.000 400.000 L 400.000 400.000 400.000 200.000 L 400.000 0.000 200.000 0.000 L 0.000 0.000 0.000 200.000 M180.400 66.075 C 180.400 66.602,161.873 85.513,160.600 86.286 C 159.991 86.656,151.938 86.778,126.800 86.800 L 93.800 86.829 83.719 76.546 C 78.174 70.890,73.730 66.114,73.842 65.932 C 74.190 65.370,180.400 65.513,180.400 66.075 M328.182 65.972 C 328.309 66.176,323.954 70.861,318.506 76.382 L 308.600 86.421 275.220 86.411 L 241.840 86.400 232.220 76.548 C 226.929 71.130,222.542 66.450,222.471 66.148 C 222.315 65.487,327.774 65.310,328.182 65.972 M80.310 80.118 L 90.400 90.236 90.400 117.790 L 90.400 145.344 84.116 151.672 C 80.660 155.152,77.613 158.000,77.346 158.000 C 76.728 158.000,70.226 151.694,69.639 150.526 C 69.168 149.589,68.977 71.847,69.443 70.633 C 69.836 69.609,69.795 69.573,80.310 80.118 M184.800 110.521 L 184.800 150.641 181.367 154.321 C 179.478 156.344,177.682 158.000,177.376 158.000 C 177.069 158.000,173.934 155.124,170.409 151.609 L 164.000 145.218 164.000 117.744 L 164.000 90.271 173.100 81.040 C 178.105 75.962,182.543 71.492,182.961 71.104 C 184.874 69.334,184.800 67.742,184.800 110.521 M332.800 110.675 L 332.800 150.503 329.328 154.052 C 327.418 156.003,325.665 157.600,325.432 157.600 C 325.199 157.600,322.172 154.767,318.705 151.305 L 312.400 145.009 312.400 117.623 L 312.400 90.237 322.270 80.338 C 327.698 74.894,332.288 70.531,332.470 70.643 C 332.651 70.755,332.800 88.770,332.800 110.675 M228.711 80.519 L 238.400 90.237 238.400 117.591 L 238.400 144.944 232.116 151.272 C 228.660 154.752,225.629 157.600,225.381 157.600 C 224.894 157.600,219.225 152.142,218.216 150.701 C 217.571 149.780,217.229 71.705,217.867 71.067 C 218.511 70.423,219.540 71.320,228.711 80.519 M310.913 152.158 C 311.621 152.465,314.270 154.810,316.800 157.368 L 321.400 162.019 316.369 167.009 L 311.337 172.000 275.286 172.000 L 239.234 172.000 234.417 167.201 C 231.768 164.561,229.600 162.194,229.600 161.941 C 229.600 161.216,238.065 152.780,239.400 152.175 C 241.206 151.357,309.028 151.341,310.913 152.158 M84.086 172.314 L 90.400 178.628 90.400 206.198 L 90.400 233.768 80.194 243.984 C 72.039 252.147,69.910 254.079,69.600 253.600 C 69.356 253.223,69.210 238.302,69.206 213.444 L 69.200 173.888 73.075 169.944 C 75.206 167.775,77.135 166.000,77.361 166.000 C 77.587 166.000,80.614 168.841,84.086 172.314 M178.065 166.500 C 178.405 166.775,180.059 168.493,181.741 170.317 L 184.800 173.634 184.800 213.593 C 184.800 241.569,184.672 253.632,184.372 253.818 C 184.136 253.963,182.571 252.669,180.894 250.941 C 179.218 249.214,174.730 244.634,170.923 240.765 L 164.000 233.729 164.000 206.369 L 164.000 179.009 170.495 172.504 C 177.491 165.499,177.156 165.765,178.065 166.500 M232.116 172.728 L 238.400 179.056 238.400 206.419 L 238.400 233.782 228.406 243.777 C 221.559 250.623,218.282 253.642,218.000 253.360 C 217.722 253.082,217.623 240.059,217.694 213.283 L 217.800 173.617 221.392 170.008 C 223.367 168.024,225.174 166.400,225.408 166.400 C 225.641 166.400,228.660 169.248,232.116 172.728 M329.351 170.158 L 332.800 173.915 332.800 213.758 C 332.800 235.671,332.660 253.600,332.489 253.600 C 332.319 253.600,327.729 249.137,322.289 243.682 L 312.400 233.763 312.400 206.333 L 312.400 178.903 318.556 172.651 C 321.942 169.213,324.979 166.400,325.307 166.400 C 325.634 166.400,327.454 168.091,329.351 170.158 M162.327 239.100 C 163.338 240.145,167.835 244.725,172.320 249.277 C 176.806 253.829,180.358 257.744,180.214 257.977 C 179.776 258.686,73.904 258.560,74.071 257.851 C 74.142 257.549,78.617 252.779,84.015 247.251 L 93.830 237.200 127.159 237.200 L 160.488 237.200 162.327 239.100 M318.297 247.486 C 323.630 252.939,327.935 257.580,327.863 257.800 C 327.664 258.414,222.600 258.348,222.600 257.734 C 222.600 257.478,226.892 252.843,232.138 247.434 L 241.677 237.600 275.138 237.586 L 308.600 237.571 318.297 247.486 M101.916 296.540 C 102.079 301.498,102.686 301.199,92.451 301.207 C 79.230 301.217,77.373 303.021,77.671 315.575 C 77.918 326.005,79.075 326.906,92.600 327.200 L 101.800 327.400 102.000 330.200 C 102.238 333.526,102.184 333.590,105.195 326.400 C 106.346 323.650,107.788 320.230,108.399 318.800 C 110.646 313.541,115.968 300.896,117.407 297.400 C 119.448 292.439,118.944 292.758,124.525 292.888 L 129.333 293.000 129.989 294.200 C 130.349 294.860,130.891 296.030,131.193 296.800 C 131.494 297.570,132.249 299.330,132.870 300.710 C 133.492 302.091,134.000 303.300,134.000 303.398 C 134.000 303.496,134.427 304.527,134.949 305.688 C 135.471 306.850,137.114 310.680,138.601 314.200 C 140.087 317.720,142.636 323.724,144.265 327.543 C 147.867 335.985,147.985 335.600,141.800 335.600 C 136.484 335.600,136.962 335.964,134.620 330.137 L 132.876 325.800 124.176 325.800 L 115.475 325.800 114.386 328.834 C 113.786 330.503,112.928 332.700,112.477 333.718 L 111.659 335.569 97.529 335.584 C 79.322 335.604,76.676 335.068,71.990 330.402 C 64.923 323.365,65.061 304.981,72.235 297.845 C 76.397 293.705,79.796 292.879,92.400 292.948 L 101.800 293.000 101.916 296.540 M176.439 293.352 C 184.971 295.137,189.402 303.474,186.423 312.135 C 184.062 318.997,180.131 320.800,167.538 320.800 C 162.952 320.800,159.166 320.845,159.123 320.900 C 159.081 320.955,158.946 324.240,158.823 328.200 L 158.600 335.400 154.800 335.517 C 152.710 335.582,150.595 335.533,150.100 335.410 L 149.200 335.185 149.200 314.259 C 149.200 302.750,149.320 293.213,149.467 293.067 C 150.011 292.523,173.671 292.773,176.439 293.352 M224.714 296.639 C 224.861 301.331,225.135 301.153,217.572 301.289 L 211.400 301.400 211.200 318.400 L 211.000 335.400 206.658 335.514 C 200.613 335.673,201.200 337.561,201.200 317.951 L 201.200 301.200 195.233 301.200 C 191.951 301.200,188.981 301.091,188.633 300.957 C 187.975 300.705,187.653 293.680,188.271 293.063 C 188.420 292.914,196.655 292.839,206.571 292.896 L 224.600 293.000 224.714 296.639 M238.304 313.755 C 238.378 328.749,238.282 334.661,237.955 335.055 C 237.484 335.621,229.958 335.866,228.633 335.357 C 227.965 335.101,227.618 293.715,228.278 293.055 C 228.431 292.902,230.726 292.827,233.378 292.888 L 238.200 293.000 238.304 313.755 M260.328 294.900 C 260.780 296.055,262.988 302.580,265.234 309.400 C 267.480 316.220,269.455 321.954,269.622 322.143 C 270.102 322.685,270.441 321.791,275.206 307.400 C 277.683 299.920,279.890 293.571,280.111 293.291 C 280.415 292.906,282.147 292.808,287.157 292.891 L 293.800 293.000 293.904 313.755 C 293.978 328.749,293.882 334.661,293.555 335.055 C 292.858 335.894,285.082 335.822,284.374 334.969 C 283.945 334.451,283.937 332.382,284.332 323.469 C 284.887 310.963,284.919 307.998,284.500 308.006 C 284.335 308.009,282.326 313.724,280.035 320.706 C 277.744 327.688,275.625 333.895,275.325 334.500 L 274.779 335.600 270.290 335.594 C 267.820 335.591,265.592 335.456,265.339 335.294 C 265.085 335.132,262.863 328.970,260.401 321.600 C 257.939 314.230,255.767 307.930,255.575 307.600 C 255.133 306.844,255.134 308.697,255.584 322.986 C 256.016 336.733,256.437 335.658,250.679 335.513 L 246.200 335.400 246.096 314.600 C 246.039 303.160,246.078 293.575,246.183 293.300 C 246.326 292.928,248.057 292.800,252.941 292.800 L 259.507 292.800 260.328 294.900 M333.916 296.540 C 334.079 301.487,334.641 301.200,324.784 301.200 C 313.431 301.200,309.287 303.367,310.071 308.893 L 310.200 309.800 322.000 310.000 L 333.800 310.200 333.916 313.740 C 334.081 318.776,335.081 318.400,321.538 318.400 C 308.471 318.400,309.081 318.230,310.188 321.562 C 311.841 326.541,312.873 326.945,324.600 327.200 L 333.800 327.400 333.916 330.940 C 334.080 335.921,334.769 335.603,323.851 335.586 C 304.721 335.556,298.847 330.584,298.820 314.400 C 298.793 297.773,304.676 292.839,324.400 292.948 L 333.800 293.000 333.916 296.540 M158.975 301.722 C 158.864 302.009,158.825 304.484,158.887 307.222 L 159.000 312.200 165.200 312.313 C 174.116 312.476,176.397 311.353,176.397 306.800 C 176.397 302.389,173.940 301.200,164.826 301.200 C 160.546 301.200,159.126 301.327,158.975 301.722 M121.476 310.093 C 120.220 313.452,119.194 316.335,119.196 316.500 C 119.198 316.665,121.450 316.800,124.200 316.800 C 127.944 316.800,129.195 316.674,129.180 316.300 C 129.146 315.419,124.512 304.237,124.129 304.110 C 123.925 304.042,122.732 306.734,121.476 310.093 " stroke="none" fill="#040404" fill-rule="evenodd"></path><path id="path4" d="M73.842 65.932 C 73.730 66.114,78.174 70.890,83.719 76.546 L 93.800 86.829 126.800 86.800 C 151.938 86.778,159.991 86.656,160.600 86.286 C 161.873 85.513,180.400 66.602,180.400 66.075 C 180.400 65.513,74.190 65.370,73.842 65.932 M178.933 66.300 C 179.032 66.465,174.915 70.875,169.785 76.100 L 160.457 85.600 127.126 85.600 L 93.794 85.600 84.445 76.245 C 78.965 70.761,75.211 66.706,75.372 66.445 C 75.690 65.931,178.625 65.787,178.933 66.300 M69.443 70.633 C 68.977 71.847,69.168 149.589,69.639 150.526 C 70.226 151.694,76.728 158.000,77.346 158.000 C 77.613 158.000,80.660 155.152,84.116 151.672 L 90.400 145.344 90.400 117.790 L 90.400 90.236 80.310 80.118 C 69.795 69.573,69.836 69.609,69.443 70.633 M182.961 71.104 C 182.543 71.492,178.105 75.962,173.100 81.040 L 164.000 90.271 164.000 117.744 L 164.000 145.218 170.409 151.609 C 173.934 155.124,177.069 158.000,177.376 158.000 C 177.682 158.000,179.478 156.344,181.367 154.321 L 184.800 150.641 184.800 110.521 C 184.800 67.742,184.874 69.334,182.961 71.104 M80.097 81.097 L 89.600 90.594 89.600 117.802 L 89.600 145.010 83.389 151.205 L 77.179 157.400 73.589 153.758 L 70.000 150.116 70.000 110.858 C 70.000 89.266,70.134 71.600,70.297 71.600 C 70.460 71.600,74.870 75.874,80.097 81.097 M184.000 110.982 L 184.000 150.364 180.618 153.882 L 177.235 157.400 171.018 151.174 L 164.800 144.949 164.800 117.841 L 164.800 90.733 169.286 86.067 C 178.538 76.441,183.352 71.600,183.671 71.600 C 183.852 71.600,184.000 89.322,184.000 110.982 M73.075 169.944 L 69.200 173.888 69.206 213.444 C 69.210 238.302,69.356 253.223,69.600 253.600 C 69.910 254.079,72.039 252.147,80.194 243.984 L 90.400 233.768 90.400 206.198 L 90.400 178.628 84.086 172.314 C 80.614 168.841,77.587 166.000,77.361 166.000 C 77.135 166.000,75.206 167.775,73.075 169.944 M170.495 172.504 L 164.000 179.009 164.000 206.369 L 164.000 233.729 170.923 240.765 C 174.730 244.634,179.218 249.214,180.894 250.941 C 182.571 252.669,184.136 253.963,184.372 253.818 C 184.672 253.632,184.800 241.569,184.800 213.593 L 184.800 173.634 181.741 170.317 C 178.659 166.975,177.638 166.000,177.219 166.000 C 177.094 166.000,174.068 168.927,170.495 172.504 M83.695 173.095 L 89.600 178.990 89.600 206.255 L 89.600 233.521 80.185 242.960 C 75.006 248.152,70.596 252.400,70.385 252.400 C 70.141 252.400,70.000 238.090,70.000 213.363 L 70.000 174.326 73.300 170.778 C 75.115 168.827,76.868 167.224,77.195 167.215 C 77.522 167.207,80.447 169.853,83.695 173.095 M180.955 170.614 L 184.000 174.027 184.000 213.214 C 184.000 235.417,183.848 252.400,183.649 252.400 C 183.456 252.400,179.136 248.091,174.049 242.825 L 164.800 233.250 164.800 206.175 L 164.800 179.100 170.676 173.150 C 177.583 166.155,177.087 166.278,180.955 170.614 M84.015 247.251 C 78.617 252.779,74.142 257.549,74.071 257.851 C 73.904 258.560,179.776 258.686,180.214 257.977 C 180.358 257.744,176.806 253.829,172.320 249.277 C 167.835 244.725,163.338 240.145,162.327 239.100 L 160.488 237.200 127.159 237.200 L 93.830 237.200 84.015 247.251 M169.478 247.500 C 174.586 252.725,178.773 257.135,178.782 257.300 C 178.792 257.465,155.490 257.600,127.000 257.600 C 98.510 257.600,75.200 257.490,75.200 257.356 C 75.200 257.222,79.464 252.812,84.677 247.556 L 94.153 238.000 127.172 238.000 L 160.191 238.000 169.478 247.500 M80.763 293.390 C 71.204 295.499,67.061 301.905,67.046 314.600 C 67.034 324.814,69.553 330.000,76.200 333.449 C 79.957 335.398,81.990 335.601,97.529 335.584 L 111.659 335.569 112.477 333.718 C 112.928 332.700,113.786 330.503,114.386 328.834 L 115.475 325.800 124.176 325.800 L 132.876 325.800 134.620 330.137 C 136.962 335.964,136.484 335.600,141.800 335.600 C 147.985 335.600,147.867 335.985,144.265 327.543 C 142.636 323.724,140.087 317.720,138.601 314.200 C 137.114 310.680,135.471 306.850,134.949 305.688 C 134.427 304.527,134.000 303.496,134.000 303.398 C 134.000 303.300,133.492 302.091,132.870 300.710 C 132.249 299.330,131.494 297.570,131.193 296.800 C 130.891 296.030,130.349 294.860,129.989 294.200 L 129.333 293.000 124.525 292.888 C 118.944 292.758,119.448 292.439,117.407 297.400 C 115.968 300.896,110.646 313.541,108.399 318.800 C 107.788 320.230,106.346 323.650,105.195 326.400 C 102.184 333.590,102.238 333.526,102.000 330.200 L 101.800 327.400 92.600 327.200 C 79.075 326.906,77.918 326.005,77.671 315.575 C 77.373 303.021,79.230 301.217,92.451 301.207 C 102.686 301.199,102.079 301.498,101.916 296.540 L 101.800 293.000 92.400 292.948 C 86.236 292.915,82.230 293.067,80.763 293.390 M149.467 293.067 C 149.320 293.213,149.200 302.750,149.200 314.259 L 149.200 335.185 150.100 335.410 C 150.595 335.533,152.710 335.582,154.800 335.517 L 158.600 335.400 158.823 328.200 C 158.946 324.240,159.081 320.955,159.123 320.900 C 159.166 320.845,162.952 320.800,167.538 320.800 C 180.131 320.800,184.062 318.997,186.423 312.135 C 189.402 303.474,184.971 295.137,176.439 293.352 C 173.671 292.773,150.011 292.523,149.467 293.067 M188.271 293.063 C 187.653 293.680,187.975 300.705,188.633 300.957 C 188.981 301.091,191.951 301.200,195.233 301.200 L 201.200 301.200 201.200 317.951 C 201.200 337.561,200.613 335.673,206.658 335.514 L 211.000 335.400 211.200 318.400 L 211.400 301.400 217.572 301.289 C 225.135 301.153,224.861 301.331,224.714 296.639 L 224.600 293.000 206.571 292.896 C 196.655 292.839,188.420 292.914,188.271 293.063 M228.278 293.055 C 227.618 293.715,227.965 335.101,228.633 335.357 C 229.958 335.866,237.484 335.621,237.955 335.055 C 238.282 334.661,238.378 328.749,238.304 313.755 L 238.200 293.000 233.378 292.888 C 230.726 292.827,228.431 292.902,228.278 293.055 M246.183 293.300 C 246.078 293.575,246.039 303.160,246.096 314.600 L 246.200 335.400 250.679 335.513 C 256.437 335.658,256.016 336.733,255.584 322.986 C 255.134 308.697,255.133 306.844,255.575 307.600 C 255.767 307.930,257.939 314.230,260.401 321.600 C 262.863 328.970,265.085 335.132,265.339 335.294 C 265.592 335.456,267.820 335.591,270.290 335.594 L 274.779 335.600 275.325 334.500 C 275.625 333.895,277.744 327.688,280.035 320.706 C 282.326 313.724,284.335 308.009,284.500 308.006 C 284.919 307.998,284.887 310.963,284.332 323.469 C 283.937 332.382,283.945 334.451,284.374 334.969 C 285.082 335.822,292.858 335.894,293.555 335.055 C 293.882 334.661,293.978 328.749,293.904 313.755 L 293.800 293.000 287.157 292.891 C 282.147 292.808,280.415 292.906,280.111 293.291 C 279.890 293.571,277.683 299.920,275.206 307.400 C 270.441 321.791,270.102 322.685,269.622 322.143 C 269.455 321.954,267.480 316.220,265.234 309.400 C 262.988 302.580,260.780 296.055,260.328 294.900 L 259.507 292.800 252.941 292.800 C 248.057 292.800,246.326 292.928,246.183 293.300 M312.446 293.453 C 303.219 295.466,298.801 302.258,298.820 314.400 C 298.847 330.584,304.721 335.556,323.851 335.586 C 334.769 335.603,334.080 335.921,333.916 330.940 L 333.800 327.400 324.600 327.200 C 312.873 326.945,311.841 326.541,310.188 321.562 C 309.081 318.230,308.471 318.400,321.538 318.400 C 335.081 318.400,334.081 318.776,333.916 313.740 L 333.800 310.200 322.000 310.000 L 310.200 309.800 310.071 308.893 C 309.287 303.367,313.431 301.200,324.784 301.200 C 334.641 301.200,334.079 301.487,333.916 296.540 L 333.800 293.000 324.400 292.948 C 317.683 292.911,314.271 293.055,312.446 293.453 M101.357 293.833 C 101.697 294.719,101.649 299.304,101.294 299.859 C 101.092 300.174,98.297 300.363,92.400 300.460 C 78.852 300.682,76.988 302.536,77.271 315.515 C 77.510 326.468,78.542 327.303,92.200 327.600 L 101.400 327.800 101.517 331.166 C 101.665 335.414,102.124 335.186,93.390 335.194 C 78.766 335.206,73.520 333.344,70.100 326.926 C 64.171 315.802,67.515 299.580,76.608 295.358 C 81.043 293.299,100.688 292.088,101.357 293.833 M129.094 293.700 C 129.309 293.975,130.435 296.450,131.596 299.200 C 132.757 301.950,135.819 309.150,138.400 315.200 C 148.075 337.876,147.618 335.200,141.822 335.200 C 136.894 335.200,137.292 335.526,134.974 329.600 C 132.974 324.488,133.690 324.800,123.973 324.800 C 114.387 324.800,115.480 324.252,113.255 330.173 C 111.302 335.371,111.531 335.188,107.000 335.188 C 102.515 335.188,102.051 334.956,102.893 333.137 C 103.686 331.425,105.367 327.501,108.006 321.200 C 112.674 310.052,113.639 307.765,113.997 307.000 C 114.202 306.560,115.389 303.770,116.634 300.800 C 120.196 292.305,119.286 293.200,124.361 293.200 C 127.358 293.200,128.823 293.355,129.094 293.700 M175.269 293.632 C 179.695 294.529,180.564 294.938,182.830 297.187 C 187.783 302.104,187.897 311.689,183.060 316.459 C 179.789 319.684,178.183 320.090,167.600 320.366 L 158.600 320.600 158.490 327.582 C 158.412 332.555,158.239 334.655,157.890 334.876 C 157.312 335.244,151.149 335.309,150.233 334.957 C 149.573 334.704,149.215 294.119,149.867 293.467 C 150.316 293.017,172.964 293.165,175.269 293.632 M223.915 296.900 L 223.800 300.600 217.400 300.800 L 211.000 301.000 210.896 317.779 C 210.816 330.592,210.674 334.633,210.296 334.873 C 209.482 335.389,202.622 335.262,202.080 334.720 C 201.722 334.362,201.600 329.991,201.600 317.520 L 201.600 300.800 195.633 300.800 C 192.351 300.800,189.381 300.691,189.033 300.557 C 188.378 300.306,188.057 294.076,188.667 293.467 C 188.813 293.320,196.830 293.200,206.482 293.200 L 224.030 293.200 223.915 296.900 M237.504 313.974 C 237.585 330.168,237.500 334.616,237.104 334.868 C 236.367 335.336,230.079 335.271,229.174 334.786 C 228.380 334.361,227.901 294.233,228.679 293.454 C 228.833 293.300,230.858 293.225,233.179 293.287 L 237.400 293.400 237.504 313.974 M259.763 294.900 C 260.110 295.835,262.289 302.360,264.607 309.400 C 269.386 323.917,269.558 324.346,270.226 323.432 C 270.478 323.088,272.810 316.369,275.408 308.503 C 278.007 300.636,280.305 293.975,280.515 293.700 C 281.146 292.876,293.037 292.999,293.357 293.833 C 293.491 294.181,293.600 303.444,293.600 314.419 C 293.600 337.442,294.090 335.200,289.059 335.200 C 284.270 335.200,284.709 336.841,285.036 320.148 C 285.379 302.687,285.345 302.587,282.274 312.000 C 273.759 338.093,275.231 335.202,270.471 335.195 C 268.562 335.192,266.639 335.092,266.198 334.974 C 265.541 334.797,264.499 332.092,260.425 319.979 C 257.691 311.851,255.311 305.200,255.135 305.200 C 254.453 305.200,254.303 307.513,254.644 312.749 C 254.840 315.747,255.000 321.980,255.000 326.600 L 255.000 335.000 251.600 335.118 C 249.730 335.183,247.795 335.135,247.300 335.010 L 246.400 334.785 246.400 314.259 C 246.400 302.970,246.520 293.613,246.667 293.467 C 246.813 293.320,249.678 293.200,253.034 293.200 L 259.134 293.200 259.763 294.900 M333.357 293.833 C 333.795 294.975,333.618 299.822,333.120 300.320 C 332.777 300.663,330.255 300.800,324.307 300.800 C 313.599 300.800,312.212 301.301,310.146 305.911 C 308.101 310.476,307.905 310.400,321.637 310.400 C 334.649 310.400,333.600 310.084,333.600 314.000 C 333.600 317.916,334.649 317.600,321.637 317.600 C 308.208 317.600,308.173 317.613,309.655 322.040 C 311.274 326.876,313.193 327.600,324.390 327.600 C 334.362 327.600,333.600 327.273,333.600 331.553 C 333.600 335.300,333.825 335.200,325.420 335.199 C 305.209 335.196,299.418 330.555,299.466 314.400 C 299.503 302.244,303.772 295.712,312.799 294.000 C 313.976 293.777,315.028 293.506,315.136 293.397 C 315.730 292.803,333.122 293.219,333.357 293.833 M158.667 301.067 C 158.069 301.665,158.374 312.281,159.004 312.804 C 160.106 313.718,171.805 313.135,173.892 312.062 C 178.215 309.839,177.875 302.987,173.365 301.450 C 171.413 300.785,159.265 300.468,158.667 301.067 M172.667 301.837 C 175.314 302.606,176.397 304.047,176.397 306.800 C 176.397 311.353,174.116 312.476,165.200 312.313 L 159.000 312.200 158.887 307.222 C 158.825 304.484,158.864 302.009,158.975 301.722 C 159.283 300.917,169.807 301.005,172.667 301.837 M123.466 303.500 C 122.366 305.319,118.461 316.621,118.811 316.971 C 119.375 317.535,129.013 317.547,129.575 316.985 C 129.862 316.698,129.166 314.505,127.321 309.885 C 124.944 303.934,124.074 302.494,123.466 303.500 M126.829 310.016 C 128.112 313.197,129.170 316.025,129.180 316.300 C 129.195 316.674,127.944 316.800,124.200 316.800 C 121.450 316.800,119.198 316.665,119.196 316.500 C 119.186 315.633,123.815 304.005,124.129 304.110 C 124.332 304.177,125.547 306.835,126.829 310.016 " stroke="none" fill="#465ea8" fill-rule="evenodd"></path></g></svg>