<?xml version="1.0" standalone="no"?>
<!DOCTYPE svg PUBLIC "-//W3C//DTD SVG 20010904//EN"
 "http://www.w3.org/TR/2001/REC-SVG-20010904/DTD/svg10.dtd">
<svg version="1.0" xmlns="http://www.w3.org/2000/svg"
 width="360.000000pt" height="360.000000pt" viewBox="0 0 360.000000 360.000000"
 preserveAspectRatio="xMidYMid meet">
<metadata>
Created by potrace 1.14, written by Peter Selinger 2001-2017
</metadata>
<g transform="translate(0.000000,360.000000) scale(0.100000,-0.100000)"
fill="#000000" stroke="none">
<path d="M0 1800 l0 -1800 1800 0 1800 0 0 1800 0 1800 -1800 0 -1800 0 0
-1800z m1579 1163 c-25 -27 -65 -69 -89 -95 l-43 -48 -301 0 -301 0 -95 95
-95 95 485 0 484 0 -45 -47z m1291 -48 l-95 -95 -300 0 -301 0 -75 78 c-41 42
-80 85 -88 95 -13 16 11 17 470 17 l484 0 -95 -95z m-720 -375 l0 -246 -60
-59 -60 -59 -35 34 -35 34 0 365 0 366 95 -95 95 -95 0 -245z m-1340 0 l0
-244 -57 -58 -57 -58 -33 32 -33 32 0 360 0 361 90 -90 90 -90 0 -245z m818
-327 l-32 -33 -58 57 -58 57 0 245 0 246 88 88 87 87 3 -357 2 -357 -32 -33z
m1330 0 l-32 -33 -58 57 -58 57 0 245 0 246 88 88 87 87 3 -357 2 -357 -32
-33z m-115 -19 c26 -25 47 -49 47 -53 0 -4 -19 -26 -43 -49 l-43 -42 -324 0
-324 0 -48 47 -48 47 47 48 47 48 321 0 320 0 48 -46z m-693 -452 l0 -243 -95
-97 -95 -97 0 365 0 365 31 39 32 38 63 -63 64 -63 0 -244z m819 331 l31 -38
0 -362 c0 -200 -4 -363 -9 -363 -4 0 -47 41 -95 91 l-86 91 0 251 0 251 57 58
c32 32 61 58 64 58 4 0 21 -17 38 -37z m-2212 -25 l53 -52 0 -251 0 -250 -90
-90 -90 -90 0 363 0 362 27 30 c14 17 31 30 37 30 6 0 34 -23 63 -52z m876 18
l27 -35 0 -358 0 -358 -90 90 -90 90 0 249 0 250 52 53 c29 29 57 53 63 53 5
0 22 -16 38 -34z m-158 -638 c16 -18 54 -59 84 -90 l54 -58 -474 0 -474 0 90
90 90 90 301 0 301 0 28 -32z m1390 -58 l90 -90 -480 0 -480 0 90 90 90 90
300 0 300 0 90 -90z m-1955 -445 l0 -35 -85 0 c-113 0 -125 -12 -125 -121 0
-72 2 -79 26 -98 22 -17 41 -21 105 -21 l79 0 0 -32 c0 -19 4 -28 9 -22 4 5
41 89 82 187 l73 177 46 0 45 0 78 -183 c42 -100 77 -185 77 -189 0 -5 -20 -8
-44 -8 -42 0 -44 1 -60 45 l-18 45 -82 0 -82 0 -14 -42 -15 -43 -135 -3 c-124
-2 -139 -1 -179 20 -60 31 -86 81 -86 168 0 79 25 135 74 167 30 20 47 23 132
23 l99 0 0 -35z m718 15 c63 -39 70 -141 13 -192 -29 -26 -37 -28 -121 -28
l-90 0 0 -71 0 -70 -42 3 -43 3 -3 188 -2 187 127 0 c110 0 133 -3 161 -20z
m392 -15 l0 -35 -60 0 -60 0 0 -156 0 -155 -42 3 -43 3 -3 152 -3 152 -57 3
c-56 3 -57 3 -60 36 l-3 32 165 0 166 0 0 -35z m120 -156 l0 -190 -42 3 -43 3
-3 188 -2 187 45 0 45 0 0 -191z m240 56 c24 -74 47 -132 51 -127 4 4 26 64
49 135 l42 127 59 0 59 0 0 -190 0 -190 -41 0 -42 0 8 138 c4 75 4 134 0 131
-3 -4 -25 -64 -48 -135 l-43 -129 -44 0 -43 0 -48 140 -48 140 6 -142 6 -143
-42 0 -41 0 0 190 0 190 58 0 58 0 44 -135z m620 100 l0 -35 -79 0 c-44 0 -87
-3 -96 -6 -14 -6 -45 -53 -45 -69 0 -3 50 -5 110 -5 l110 0 0 -35 0 -35 -110
0 c-63 0 -110 -4 -110 -10 0 -23 24 -59 47 -69 13 -6 57 -11 98 -11 l75 0 0
-36 0 -36 -98 4 c-118 4 -156 22 -189 88 -35 67 -27 186 15 234 40 45 73 56
175 56 l97 0 0 -35z"/>
<path d="M1092 815 c-12 -31 -22 -59 -22 -61 0 -2 22 -4 49 -4 l50 0 -21 53
c-12 28 -24 56 -28 60 -4 4 -17 -17 -28 -48z"/>
<path d="M1430 834 l0 -57 65 5 c70 6 95 19 95 50 0 47 -17 58 -90 58 l-70 0
0 -56z"/>
</g>
</svg>
